<!DOCTYPE svg PUBLIC "-//W3C//DTD SVG 1.1//EN" "http://www.w3.org/Graphics/SVG/1.1/DTD/svg11.dtd">
<!-- Uploaded to: SVG Repo, www.svgrepo.com, Transformed by: SVG Repo Mixer Tools -->
<svg width="800px" height="800px" viewBox="0 0 32 32" fill="none" xmlns="http://www.w3.org/2000/svg">
<g id="SVGRepo_bgCarrier" stroke-width="0"/>
<g id="SVGRepo_tracerCarrier" stroke-linecap="round" stroke-linejoin="round"/>
<g id="SVGRepo_iconCarrier"> <g clip-path="url(#clip0_901_3121)"> <path d="M27 8H30C30.55 8 31 8.45 31 9V30C31 30.55 30.55 31 30 31H1.99998C1.65998 31 1.34998 30.82 1.16998 30.56L1.44998 30.55L16 16L24 24V8H27Z" fill="#329db8"/> <path d="M16 16L1.45 30.55L1.17 30.56C1.06 30.4 1 30.21 1 30V9C1 8.45 1.45 8 2 8H24V24L16 16Z" fill="#00751f"/> <path d="M27 8H30C30.553 8 31 8.447 31 9V30C31 30.553 30.553 31 30 31H2C1.447 31 1 30.553 1 30V9C1 8.447 1.447 8 2 8H21M4 28L16 16L24 24V1M24 1L20 5M24 1L28 5" stroke="#06fe7e" stroke-width="2" stroke-linecap="round" stroke-linejoin="round"/> </g> <defs> <clipPath id="clip0_901_3121"> <rect width="32" height="32" fill="white"/> </clipPath> </defs> </g>
</svg>