<svg xmlns="http://www.w3.org/2000/svg" width="320" height="311"><path fill="#e41837" d="M0 0h320v311H0z"/><path fill="#fbfafb" d="M0 0h226v1l-2.133.41c-15.135 3.3-30.366 11.057-39.394 24.086C179.865 33.33 175.873 41.38 173 50H1v203h318V50h-22l-1.625-5.312C289.828 28.315 280.142 16.305 265 8l-1.941-1.203C256.659 3.092 249.193 2.237 242 1V0h78v311H0z"/><path fill="#043e7e" d="M274.883 13.172C287.62 24.157 296.558 38.15 299 55c.674 9.404.296 18.062-3 27l-1.102 3.023C288.684 100.94 277.762 113.886 262 121c-14.93 6.245-32.64 8.03-48.027 2.313-19.085-8.427-30.867-19.767-38.93-39.196-5.403-16.15-4.81-33.405 2.723-48.703C186.473 18.927 199.296 7.984 217 2l2.188-.742c19.105-5.283 40.204.243 55.695 11.914"/><path fill="#fefefe" d="M0 0h226v1l-2.133.41c-15.135 3.3-30.366 11.057-39.394 24.086C179.865 33.33 175.873 41.38 173 50H0z"/><path fill="#f8f9fb" d="M214 20c3.128.311 4.618.605 6.837 2.902l1.679 2.465 1.851 2.684 1.883 2.824 1.93 2.8c4.652 6.82 4.652 6.82 5.82 10.325 4.446-4.117 7.767-8.703 11.188-13.687a2401 2401 0 0 1 3.167-4.575l1.396-2.03C251 22 251 22 253 20h4c.555 6.91-1.484 12.879-3.5 19.438l-1.012 3.373Q251.258 46.909 250 51l3.734-.219c9.097-.516 18.15-.945 27.266-.781l1 5q-5.467 2.36-10.944 4.7-1.862.797-3.721 1.6-2.675 1.153-5.355 2.294l-3.253 1.396C256 66 256 66 253 66c3.286 3.83 6.607 7.609 10.102 11.25l1.633 1.718A328 328 0 0 0 268 82.343c2.943 3.102 4.695 5.321 5.001 9.657-1.634 1.18-1.634 1.18-4 2-2.749-1.058-2.749-1.058-5.86-2.867l-3.378-1.934q-1.757-1.035-3.512-2.074-1.778-1.028-3.559-2.05A1045 1045 0 0 1 244 80c-1.557 1.557-1.383 3.251-1.648 5.41l-.36 2.752q-.362 2.859-.71 5.719c-.765 5.786-2.012 10.736-4.282 16.119h-4c-1.362-5.135-2.53-10.301-3.625-15.5-.26-1.227-.52-2.454-.79-3.719-.625-4.04-.684-7.703-.585-11.781l-2.216 1.285a1597 1597 0 0 1-8.19 4.696q-1.772 1.014-3.536 2.038a651 651 0 0 1-5.101 2.918l-3.094 1.778c-2.92 1.31-4.71 1.569-7.863 1.285-.688-1.772-.688-1.772-1-4 1.184-1.812 1.184-1.812 3.008-3.645L202 83.303l2.125-2.115C208.897 76.357 213.207 71.645 217 66l-2.17-.382c-4.891-1.068-9.438-3.024-14.08-4.868l-3.086-1.16-2.93-1.168-2.68-1.044C190 56 190 56 189.142 53.41L189 51c1-1 1-1 3.867-1.114l3.793.016 2.014.005c2.13.005 4.259.018 6.388.03q2.161.008 4.323.014 5.307.017 10.615.049l-2.404-9.126a196 196 0 0 0-4.178-13.726c-.511-2.628-.081-4.576.582-7.148"/><path fill="#fdfdfe" d="M242 0h78v50h-23l-1.625-5.312C289.828 28.315 280.142 16.305 265 8l-1.941-1.203C256.659 3.092 249.193 2.237 242 1z"/><path fill="#fef9fa" d="M274.438 169.563c5.596 3.336 9.618 8.225 11.562 14.437.969 9.496.895 18.032-5 26-4.043 4.147-8.444 5.759-14.184 6.3-8.097.03-13.218-.274-19.566-5.613-5.078-6.065-5.726-11.052-5.625-18.687l-.035-2.656c.027-6.089.838-10.491 5.058-15.172l1.727-1.422 1.71-1.453c6.876-4.658 16.791-5.135 24.352-1.734"/><path fill="#fefafb" d="M36 169c14 0 14 0 17.555 3.5 1.23 2.188 1.23 2.188 2.32 4.5l1.254 2.313c1.005 1.87 1.945 3.776 2.871 5.687 4.282-3.86 6.504-8.439 9.121-13.516C72 169 72 169 85 169v46H72l-1-24-3.687 5.438c-3.688 5.437-3.688 5.437-9.313 6.562l-7-11-1 24H36z"/><path fill="#fefafa" d="m148 169 14.125-.25 4.422-.11 3.523-.03 3.587-.064c4.987.677 7.955 3.285 11.718 6.454 2.61 4.817 2.233 9.645 1.625 15-1.312 3.688-1.312 3.688-3 6l-3 1 1.715 2.633 2.222 3.492 1.131 1.727c2.533 4.016 3.111 6.222 3.932 11.148h-14l-3.613-7.52c-1.33-2.379-2.191-3.887-4.387-5.48l-6-1v14h-14z"/><path fill="#fef9f9" d="M96 169h14l.148 6.895q.082 3.306.17 6.612.057 2.297.104 4.595c.046 2.202.104 4.403.164 6.605l.035 2.074c.112 3.604.323 5.135 2.379 8.219 1.905.438 1.905.438 4 .313l2.125-.012c2.117-.152 2.117-.152 3.875-2.301.245-2.504.373-4.905.414-7.414l.059-2.211c.06-2.333.106-4.667.152-7l.117-4.742q.143-5.816.258-11.633h14q.149 7.525.22 15.051.03 2.557.082 5.116c.049 2.457.071 4.914.089 7.372l.062 2.292c.002 5.184-1.09 8.022-4.453 12.169-5.825 5.437-13.027 5.377-20.578 5.25-5.698-.416-9.691-1.473-13.797-5.687L98 208l-1.09-1.657c-1.33-3.422-1.155-6.775-1.105-10.39l.008-2.337c.011-2.455.037-4.91.062-7.366q.016-2.502.027-5.004.035-6.123.098-12.246"/><path fill="#fef8f9" d="m218.25 167.813 3.89-.043c4.008.239 7.07.988 10.86 2.23v10l-3.797-.176q-2.476-.07-4.953-.137l-2.5-.126c-5.082-.111-5.082-.111-9.305 2.552-1.7 3.395-1.917 5.604-1.82 9.387l.04 3.344c.333 3.14.871 5.366 2.335 8.156 5.197 3.465 11.669 2.316 17.688 1.5L233 204v11c-9.017 1.803-20.785 2.938-28.93-2.223-4.775-3.715-7.523-7.936-8.386-13.994-.158-2.414-.192-4.801-.184-7.22l-.086-2.448c-.02-6.172 1.603-10.379 5.586-15.115 5.515-4.873 9.98-6.151 17.25-6.187"/><path fill="#e51f3d" d="M263.5 178.313c4.435.87 5.717 2.166 8.5 5.687.594 3.594.594 3.594.5 7.5l-.031 3.906c-.52 3.988-1.603 6.728-4.469 9.594-3.076.493-5.927.521-9 0-3.539-2.934-3.85-4.78-4.406-9.305-.446-10.536-.446-10.536 2.469-14.57C260 179 260 179 263.5 178.313"/><path fill="#e51b39" d="M238 53c3.494 1.668 4.827 2.74 7 6 .46 4.965.15 8.062-3 12-3.216 2.328-6.11 2.545-10 2-4.29-2.384-4.29-2.384-6-5-.864-3.515-.864-6.485 0-10 2.892-4.427 6.855-5.876 12-5"/><path fill="#134482" d="M182 292c-1.574 12.99-1.574 12.99-6 17-2.957 1.478-5.742 1.06-9 1v-4l7-1v-1c-1.454.03-1.454.03-2.937.063C168 304 168 304 167 303c-.4-3.525-.168-5.632 1.313-8.875 4.192-3.315 8.535-2.525 13.687-2.125"/><path fill="#0b3d7d" d="M27 292h4v2h2v-2h6v2l3-2c3.188-.125 3.188-.125 6 0 .193 4.824-.243 8.496-2 13h-4l2-10c-4.023 1.472-4.023 1.472-4.828 3.945l-.422 2.18L38 305h-4c-.125-6.625-.125-6.625 1-10l-5 2-1 8h-4q.214-2.126.438-4.25c.08-.789.162-1.578.246-2.39.292-2.184.737-4.237 1.316-6.36"/><path fill="#0a3b7c" d="M229 292q2.969-.04 5.938-.062l3.34-.036C241 292 241 292 242 293c.422 4.641-.217 7.253-3 11-2.709 1.354-5.01 1.065-8 1l-1 5h-4c.676-6.082 1.736-12.013 3-18"/><path fill="#144683" d="M58.125 291.625C62 292 62 292 64 293c.48 7.2.48 7.2-1.5 10.5-3.714 2.229-6.2 1.916-10.5 1.5-2-2-2-2-2.375-4.812.652-5.541 2.83-8.48 8.5-8.563"/><path fill="#164582" d="M202.125 291.625C206 292 206 292 208 293c.48 7.2.48 7.2-1.5 10.5-3.714 2.229-6.2 1.916-10.5 1.5-2-2-2-2-2.375-4.812.652-5.541 2.83-8.48 8.5-8.563"/><path fill="#06397a" d="M89 292c2 2 2 2 2.375 4.813-.475 4.041-1.271 5.549-4.375 8.187-2.901.556-4.993.34-8 0-2-2-2-2-2.375-5.375C77 296 77 296 78.5 293.563c3.708-2.318 6.164-1.983 10.5-1.563"/><path fill="#2f588f" d="M254 287h2l1 5h6c.295 5.022.007 7.91-3 12-1 1-1 1-2.848 1.098L251 305c.585-6.142 1.54-12.007 3-18"/><path fill="#224a86" d="m317 287 2 1q-.714 3.689-1.437 7.375l-.409 2.117c-1.04 5.281-1.04 5.281-2.154 7.508q-2.22.039-4.437.063l-2.497.035C306 305 306 305 305 304c-.58-4.155-.143-5.774 2.125-9.375 2.875-2.625 2.875-2.625 6.188-3L316 292z"/><path fill="#e51e3b" d="m162 179 3.813-.125 2.144-.07C170 179 170 179 173 181c.363 2.094.363 2.094.313 4.5l-.012 2.406C173 190 173 190 171 192c-3.018.272-5.964.087-9 0z"/><path fill="#1e4683" d="m9 287 5 1c.832 5.72 1.12 11.222 1 17h-2v-5H4l-1 5-3-1a3793 3793 0 0 1 3.375-6.812l.96-1.948c1.43-2.872 2.883-5.567 4.665-8.24"/><path fill="#22508a" d="M149 292c1 1 1 1 1.25 3.438L150 298c-3.435 2.29-4.985 2.178-9 2v2h6v3q-2.187.079-4.375.125l-2.46.07C138 305 138 305 136 303c.19-3.43.695-6.256 2-9.437 3.25-2.54 7.023-2.046 11-1.563"/><path fill="#153c7c" d="m288 292-2 12c-3.666.733-6.367 1.104-10 1-1.158-4.053-.967-6.263 1-10 2.619-4.22 6.525-3.22 11-3"/><path fill="#0d3e7e" d="M121 292h5l-2 10c4.023-1.472 4.023-1.472 4.828-3.945l.422-2.18L130 292h5l-3 13c-8.496.098-8.496.098-11 0-1-1-1-1-1.125-4.812.031-2.877.208-5.436 1.125-8.188"/><path fill="#0e3e7e" d="M212 292h5l-2 10c4.023-1.472 4.023-1.472 4.828-3.945l.422-2.18L221 292h5l-3 13h-12c-.077-4.516-.102-8.59 1-13"/><path fill="#10407f" d="M70 288h4v4h2v3h-4v7h3l-1 3c-2.375.125-2.375.125-5 0-2-2-2-2-2.195-4.602l.07-3.023.055-3.04L67 292h2z"/><path fill="#0b3d7d" d="M118.563 286.938 121 287v3h-3v2l2 1-1 2h-3l-1 10h-4v-13h2l.938-1.937c1.571-3.051 1.571-3.051 4.624-3.125"/><path fill="#164884" d="m229 292 1 3h8l-1 6-5 1v-5h-2c.575 3.93.575 3.93 3 7l-3 6h-4c.676-6.082 1.736-12.013 3-18"/><path fill="#1c4c87" d="M153 287h7q-.715 3.656-1.437 7.313l-.409 2.091c-.582 2.939-1.206 5.75-2.154 8.596h-4c.779-10.558.779-10.558 3-15h-2z"/><path fill="#083c7c" d="m182 292-1 6-4-1v-2l-5 2v7l-5-1c-.325-3.498-.157-5.657 1.313-8.875 4.192-3.315 8.535-2.525 13.687-2.125"/><path fill="#184582" d="M95 292h9v3l-1.89.215c-2.302.585-2.302.585-3.157 2.851l-.703 2.497-.734 2.503L97 305h-4q.212-2.688.438-5.375c.08-.998.162-1.995.246-3.023C94 294 94 294 95 292"/><path fill="#08397a" d="M186 292h8v3l-5 1-1 9h-5q.464-2.688.938-5.375l.527-3.023C185 294 185 294 186 292"/><path fill="#274d88" d="M292 292h10c.077 4.516.102 8.59-1 13h-2c-.143-7.429-.143-7.429 1-11-3.032.93-3.032.93-6 3-1.146 2.69-1.522 5.082-2 8h-2c.52-4.38 1.057-8.688 2-13"/><path fill="#0e4180" d="M83 292v2l4 2c-.875 4.875-.875 4.875-2 6q-3.5.062-7 0c-.75-2.75-.75-2.75-1-6 3.053-4 3.053-4 6-4"/><path fill="#1c4b86" d="m54 292 2 1-2 3 5-1c.625 2.375.625 2.375 1 5l-2 2c-2.125-.375-2.125-.375-4-1v-3h-2v5h2v2l-4-2c-.366-3.938-.302-5.565 2-8.875z"/><path fill="#e9eff4" d="M312.625 293.875 315 294c-.487 6.453-.487 6.453-2.875 9-2.125 1-2.125 1-5.125 0 .99-8.904.99-8.904 5.625-9.125"/><path fill="#e8eef3" d="M282.625 293.875 285 294c-.487 6.453-.487 6.453-2.875 9-2.125 1-2.125 1-5.125 0 .99-8.904.99-8.904 5.625-9.125"/><path fill="#0f4180" d="M200 292c5.75-.125 5.75-.125 8 1 .25 7.625.25 7.625-2 11h-3l.293-6.055L203 296l-3-2z"/><path fill="#f2f5f8" d="M257 294h4c.362 5.429.362 5.429-1.187 7.875-2.373 1.473-4.072 1.347-6.813 1.125 1.75-6.75 1.75-6.75 4-9"/><path fill="#154582" d="m27 292 3 2v1l3 1-3 1-1 8h-4q.214-2.126.438-4.25c.08-.789.162-1.578.246-2.39.292-2.184.737-4.237 1.316-6.36"/><path fill="#1c4b86" d="m176 303 2 4c-2.712 2.603-3.891 2.995-7.75 3.188L167 310v-4l3.375-.375c3.656-.272 3.656-.272 5.625-2.625"/><path fill="#e41534" d="M162 180h7v1h-5v9h7v2h-9z"/><path fill="#e1e8ef" d="M74 291h3v11h-5v-7h4v-3z"/><path fill="#2c528b" d="M268 292h7v2l-6 2-1 9-3-1z"/><path fill="#194884" d="M221 292h5l-2 10-1-2-4 1z"/><path fill="#143c7c" d="m317 287 2 1-3 12h-1v-6l-8 2c1.125-2 1.125-2 3-4 3.188-.25 3.188-.25 6 0z"/><path fill="#023477" d="M137 300h3v2h7v3h-9z"/><path fill="#0a3d7d" d="M142 292q3.5-.062 7 0c1 1 1 1 1.063 3.563L150 298l-3-1v-2l-7 2z"/><path fill="#1b4180" d="M259 292h4c.295 5.022.007 7.91-3 12-1 1-1 1-4.062 1.063L253 305l1.813-.812c2.321-1.26 3.636-2.047 5.187-4.188.73-3.61.73-3.61 1-7z"/><path fill="#f0f4f7" d="m10 290 2 1v7H6c1.75-5.75 1.75-5.75 4-8"/><path fill="#204f89" d="m67 297 5 2v3h3l-1 3c-2.375.125-2.375.125-5 0-2-2-2-2-2.125-5.125z"/><path fill="#0a3b7c" d="M154 296h3l-1 9h-4c.486-3.123.999-5.996 2-9"/><path fill="#e3eaf1" d="m200 295 4 1-1 5-4 1c-.625-1.812-.625-1.812-1-4z"/><path fill="#e4eaf1" d="M83 295c2.125.375 2.125.375 4 1l-1 5-4 1c-.625-2.375-.625-2.375-1-5z"/><path fill="#e3e9f0" d="m56 295 4 1-1 5-4 1c-.625-1.812-.625-1.812-1-4z"/><path fill="#dbe4ed" d="M235 295h3l-1 6-5 1c.75-4.75.75-4.75 3-7"/><path fill="#033578" d="M52 298h2l1 3c3.008 1.225 3.008 1.225 6 2l-1 2h-6v-2h-2z"/><path fill="#2f5a90" d="m184 297 1 3h3l1-2-1 7h-5z"/><path fill="#1d4a86" d="m38 296 2 1-2 8h-4v-7l1 3h2z"/><path fill="#dbe3ec" d="M173 295h4l-1 5-5 1c.875-4.875.875-4.875 2-6"/><path fill="#27538b" d="M121 292h5l-1 7-1-2h-3l-1 3z"/><path fill="#1c4b87" d="M104 292v3l-1.875.375c-2.316.497-2.316.497-4.125 2.625l-2-1c.375-1.937.375-1.937 1-4 2.463-1.231 4.28-1.072 7-1"/><path fill="#003578" d="M56 292h6v7l-1-4-7 1z"/><path fill="#083879" d="M208 295c.25 5.625.25 5.625-2 9h-3a295 295 0 0 1 .875-3.937l.492-2.215c.699-2.04 1.335-2.848 3.633-2.848"/><path fill="#1a4a86" d="m111 297 3 1 1 7h-4z"/><path fill="#164683" d="M212 292h5c-.312 2.875-.312 2.875-1 6l-3 2z"/><path fill="#2d578f" d="m9 287 5 1-1 4-3-1-3 1z"/><path fill="#003376" d="M223 300v5c-2.867-.573-3.861-.861-6-3 3.75-2 3.75-2 6-2"/><path fill="#023a7b" d="M196 297h2l.313 1.875c.562 2.49.562 2.49 3.687 4.125-3.75 1.125-3.75 1.125-6 0z"/><path fill="#839fbe" d="M142 295h5v2h2l-1 2-7-1z"/><path fill="#154683" d="M89 294h2v6l-4 2v-3h1z"/><path fill="#356396" d="m229 292 1 3h5l-3 4v-2h-2l-2 2z"/><path fill="#18407f" d="M268 292h7v2l-7 3z"/><path fill="#023376" d="m77 299 1 3 2.438.375L83 303l1 2c-2.375.125-2.375.125-5 0l-2-2z"/><path fill="#335b91" d="M284 297c1.43 2.354 2.087 3.48 1.625 6.25L285 305l-4-2 2-2c.643-2.069.643-2.069 1-4"/><path fill="#04397a" d="M95 299c2 2 2 2 2 6h-4c.506-2.169 1-4 2-6"/><path fill="#335990" d="m291 297 2 2c-.375 3.125-.375 3.125-1 6h-2z"/></svg>