<svg xmlns="http://www.w3.org/2000/svg" width="2500" height="1778" viewBox="0.132 0.132 31.805 22.636"><path fill="#006eab" d="M7.115.132h5.526l1.272 3.443.001.003.102.04.325.868h.003c1.147.026 1.444.354 1.52.548q.086.222-.08.511c-.17-.176-.553-.326-1.273-.354l.48 1.303c-.568.59-1.297 1.471-.932 2.186.26.51.98.77 2.143.77 3.744 0 10.52-2.602 11.352-2.972a.45.45 0 0 0 .273-.387.52.52 0 0 1 .406.536.53.53 0 0 1-.32.458c-.828.368-4.99 1.934-8.423 2.663l-1.453 3.623h-4.265c-.872 0-1.3-.053-1.892-1.385-.31-.697-1.346-3.341-2.403-5.967-1.618.503-3.737 1.246-4.996 1.906a.504.504 0 0 1-.726-.602.43.43 0 0 0 .239.076H4c.074 0 .147-.02.21-.055 1.448-.76 3.993-1.592 4.983-1.903l-.314-.772.03-.06zm0 0L8.909 4.61m7.801.115c.225.605.011 1.205-.648 1.836-.137.127-1.334 1.246-1.174 1.728.075.222.415.33 1.042.33.936 0 2.478-.243 4.283-.677l3.13-7.81h-5.525l-1.516 4.099c.199.14.336.299.408.494m13.612 15.363q0 1.183-.75 1.861-.745.683-2.115.683-1.359 0-2.11-.683-.752-.679-.753-1.861.001-1.194.752-1.87.753-.677 2.111-.677 1.364 0 2.114.682.75.678.751 1.865m-1.68.008c0-.27-.031-.518-.09-.706a1.2 1.2 0 0 0-.244-.452.9.9 0 0 0-.374-.247 1.5 1.5 0 0 0-.475-.07 1.6 1.6 0 0 0-.456.06.9.9 0 0 0-.377.236 1.2 1.2 0 0 0-.256.454c-.063.193-.096.445-.096.725s.03.522.092.7q.091.267.236.427a.86.86 0 0 0 .373.238q.226.078.499.076a1.4 1.4 0 0 0 .457-.076.84.84 0 0 0 .373-.226q.165-.181.252-.435c.055-.17.085-.414.085-.704m-17.265-.882v3.299h-1.71l.002-.224c-.822.479-2.036.27-2.184.247a1.455 1.455 0 0 1-.423-2.763c.057-.026.572-.317 1.752-.317h.928c0-.263-.096-.548-.304-.68-.528-.334-2.545-.035-2.545-.035l.388-1.053a7.6 7.6 0 0 1 1.355-.142q1.432 0 2.086.412.655.412.655 1.256m-1.65 1.16c-.975 0-1.374.069-1.374.069a.7.7 0 0 0-.381.208.514.514 0 0 0 .292.863c.074.013 1.463.212 1.463-.557zm-4.434-4.137-1.686 4.494-1.67-4.494H.132l2.153 5.369c.208.53.723.905 1.327.905h.973l2.497-6.274zm6.913.96v5.316h.696c.53 0 .96-.43.96-.96v-5.316h-.697a.96.96 0 0 0-.959.96m7.868 2.64s.002.39 0 .537h-3.869c.016.22.083 1.17 1.775 1.17.203 0 .698.05 1.932-.165v1.087c-1.025.185-1.827.158-2.112.158-2.956 0-3.244-1.707-3.244-2.506 0-.808.349-2.572 2.96-2.572q1.274-.001 1.917.593c.417.384.64.97.64 1.698m-1.338-.38c-.016-.326-.1-.837-1.227-.837-1.155 0-1.252.594-1.275.836zm4.035-1.902c-.79.033-1.883.44-1.883 1.582v3.376h1.65v-2.857c0-.744.548-1.05 1.804-.744V17.69s-.493-.148-1.214-.148q-.171 0-.357.013m9.113.628a.6.6 0 0 1-.177.43.59.59 0 0 1-.43.178.59.59 0 0 1-.43-.178.59.59 0 0 1-.178-.43q0-.252.178-.43a.6.6 0 0 1 .43-.18.6.6 0 0 1 .43.18.59.59 0 0 1 .177.43m-.282.327a.45.45 0 0 0 .135-.327.45.45 0 0 0-.135-.327.44.44 0 0 0-.325-.136.44.44 0 0 0-.326.136q-.134.136-.133.327a.45.45 0 0 0 .133.327q.135.136.326.136a.45.45 0 0 0 .325-.136m.01-.045h-.203l-.167-.21h-.037v.21h-.158v-.592h.219q.06-.001.095.004a.2.2 0 0 1 .073.026q.042.023.06.057c.018.034.02.05.02.082a.17.17 0 0 1-.037.112.2.2 0 0 1-.079.06zm-.407-.33h.022q.031 0 .057-.004a.1.1 0 0 0 .037-.016.1.1 0 0 0 .018-.023.1.1 0 0 0 .007-.039.1.1 0 0 0-.007-.028.04.04 0 0 0-.02-.02q-.014-.01-.033-.01c-.019 0-.027-.004-.048-.004h-.033zm0 0"/><path fill="#ffcf00" d="M9.266 5.498c-1.62.503-3.754 1.249-5.018 1.912a.503.503 0 0 1-.46-.896c1.458-.68 3.518-1.406 5.121-1.903zm18.138.043a.5.5 0 0 0-.27.06c-4.883 2.095-11.852 3.595-12.171 2.664-.155-.447 1.152-1.646 1.152-1.646.617-.592.924-1.227.668-1.921-.282-.765-1.641-1.134-2.869-1.122.063.174.196.532.364.985l.063.001c.973.022 1.359.263 1.451.5.108.277-.17.605-.303.75-.096.105-.576.65-.576.65-.486.504-1.334 1.449-.923 2.254 1.276 2.502 12.144-1.522 13.596-2.168a.525.525 0 0 0-.182-1.007"/></svg>